<svg id="mermaidChart4" width="100%" xmlns="http://www.w3.org/2000/svg" height="100%" style="max-width:1070px;" viewBox="-60 -10 1070 1654"><style type="text/css" title="mermaid-svg-internal-css">/*  */
*, ::before, ::after { box-sizing: inherit;}
.actor { stroke: rgb(204, 204, 255); fill: rgb(226, 236, 255);}
text.actor { fill: black; stroke: none; font-size: 12px;}
.actor-line { stroke: grey;}
.messageLine0 { stroke-width: 1.5; stroke: black;}
.messageLine1 { stroke-width: 1.5; stroke: black;}
#arrowhead { fill: black;}
.messageText { fill: black; stroke: none; font-size: 12px;}
.labelBox { stroke: rgb(204, 204, 255); fill: rgb(236, 236, 255);}
.labelText { fill: black; stroke: none;}
.loopText { fill: black; stroke: none;}
.loopLine { stroke-width: 2; stroke: rgb(204, 204, 255);}
.note { stroke: rgb(204, 204, 255); fill: rgb(255, 245, 173);}
.noteText { fill: black; stroke: none; font-size: 12px;}
.actor { stroke: rgb(204, 204, 255); fill: rgb(236, 236, 255);}
text.actor { fill: black; stroke: none;}
.actor-line { stroke: grey;}
.messageLine0 { stroke-width: 1.5; stroke: rgb(51, 51, 51);}
.messageLine1 { stroke-width: 1.5; stroke: rgb(51, 51, 51);}
#arrowhead { fill: rgb(51, 51, 51);}
#crosshead path { fill: rgb(51, 51, 51) !important; stroke: rgb(51, 51, 51) !important;}
.messageText { fill: rgb(51, 51, 51); stroke: none;}
.labelBox { stroke: rgb(204, 204, 255); fill: rgb(236, 236, 255);}
.labelText { fill: black; stroke: none;}
.loopText { fill: black; stroke: none;}
.loopLine { stroke-width: 2; stroke: rgb(204, 204, 255);}
.note { stroke: rgb(170, 170, 51); fill: rgb(255, 245, 173);}
.noteText { fill: black; stroke: none; font-family: "trebuchet ms", verdana, arial; font-size: 14px;}
text { font-family: "trebuchet ms", verdana, arial; font-size: 14px;}
/*  */
</style><g></g><g><line id="actor16" x1="75" y1="5" x2="75" y2="1643" class="actor-line" stroke-width="0.5px" stroke="#999"></line><rect x="0" y="0" fill="#eaeaea" stroke="#666" width="150" height="65" rx="3" ry="3" class="actor"></rect><text x="75" y="37.5" class="actor" style="text-anchor: middle;">Activity</text></g><g><line id="actor17" x1="275" y1="5" x2="275" y2="1643" class="actor-line" stroke-width="0.5px" stroke="#999"></line><rect x="200" y="0" fill="#eaeaea" stroke="#666" width="150" height="65" rx="3" ry="3" class="actor"></rect><text x="275" y="37.5" class="actor" style="text-anchor: middle;">EasyFragmentManager</text></g><g><line id="actor18" x1="475" y1="5" x2="475" y2="1643" class="actor-line" stroke-width="0.5px" stroke="#999"></line><rect x="400" y="0" fill="#eaeaea" stroke="#666" width="150" height="65" rx="3" ry="3" class="actor"></rect><text x="475" y="37.5" class="actor" style="text-anchor: middle;">FragmentManager</text></g><g><line id="actor19" x1="675" y1="5" x2="675" y2="1643" class="actor-line" stroke-width="0.5px" stroke="#999"></line><rect x="600" y="0" fill="#eaeaea" stroke="#666" width="150" height="65" rx="3" ry="3" class="actor"></rect><text x="675" y="37.5" class="actor" style="text-anchor: middle;">FragmentTagStack</text></g><g><line id="actor20" x1="875" y1="5" x2="875" y2="1643" class="actor-line" stroke-width="0.5px" stroke="#999"></line><rect x="800" y="0" fill="#eaeaea" stroke="#666" width="150" height="65" rx="3" ry="3" class="actor"></rect><text x="875" y="37.5" class="actor" style="text-anchor: middle;">Fragment</text></g><defs><marker id="arrowhead" refX="5" refY="2" markerWidth="6" markerHeight="4" orient="auto"><path d="M 0,0 V 4 L6,2 Z"></path></marker></defs><defs><marker id="crosshead" markerWidth="15" markerHeight="8" orient="auto" refX="16" refY="4"><path fill="black" stroke="#000000" stroke-width="1px" d="M 9,2 V 6 L16,4 Z" style="stroke-dasharray: 0, 0;"></path><path fill="none" stroke="#000000" stroke-width="1px" d="M 0,1 L 6,7 M 6,1 L 0,7" style="stroke-dasharray: 0, 0;"></path></marker></defs><g><text x="175" y="93" class="messageText" style="text-anchor: middle;">Initialize</text><line x1="75" y1="100" x2="275" y2="100" class="messageLine0" stroke-width="2" stroke="black" marker-end="url(#arrowhead)" style="fill: none;"></line></g><g><rect x="70" y="102" fill="#f4f4f4" stroke="#666" width="10" height="103" rx="0" ry="0"></rect></g><g><text x="477.5" y="128" class="messageText" style="text-anchor: middle;">Creates new instance</text><line x1="80" y1="135" x2="875" y2="135" class="messageLine0" stroke-width="2" stroke="black" marker-end="url(#arrowhead)" style="fill: none;"></line></g><g><rect x="870" y="137" fill="#f4f4f4" stroke="#666" width="10" height="33" rx="0" ry="0"></rect></g><g><text x="475" y="163" class="messageText" style="text-anchor: middle;">Return IFragment instance</text><line x1="870" y1="170" x2="80" y2="170" class="messageLine0" stroke-width="2" stroke="black" marker-end="url(#arrowhead)" style="fill: none;"></line></g><g><text x="177.5" y="198" class="messageText" style="text-anchor: middle;">Adds new IFragment</text><line x1="80" y1="205" x2="275" y2="205" class="messageLine0" stroke-width="2" stroke="black" marker-end="url(#arrowhead)" style="fill: none;"></line></g><g><rect x="270" y="207" fill="#f4f4f4" stroke="#666" width="10" height="68" rx="0" ry="0"></rect></g><g><text x="377.5" y="233" class="messageText" style="text-anchor: middle;">Commits transaction</text><line x1="280" y1="240" x2="475" y2="240" class="messageLine0" stroke-width="2" stroke="black" marker-end="url(#arrowhead)" style="fill: none;"></line></g><g><text x="477.5" y="268" class="messageText" style="text-anchor: middle;">Pushes the tag</text><line x1="280" y1="275" x2="675" y2="275" class="messageLine0" stroke-width="2" stroke="black" marker-end="url(#arrowhead)" style="fill: none;"></line></g><g><rect x="50" y="285" fill="#EDF2AE" stroke="#666" width="850" height="36" rx="0" ry="0" class="note"></rect><text x="66" y="313" fill="black" class="noteText"><tspan x="66">User interaction</tspan></text></g><g><text x="475" y="349" class="messageText" style="text-anchor: middle;">(via FragmentChannel) Open some other fragment</text><line x1="875" y1="356" x2="75" y2="356" class="messageLine0" stroke-width="2" stroke="black" marker-end="url(#arrowhead)" style="fill: none;"></line></g><g><rect x="70" y="358" fill="#f4f4f4" stroke="#666" width="10" height="103" rx="0" ry="0"></rect></g><g><text x="477.5" y="384" class="messageText" style="text-anchor: middle;">Create some other instance</text><line x1="80" y1="391" x2="875" y2="391" class="messageLine0" stroke-width="2" stroke="black" marker-end="url(#arrowhead)" style="fill: none;"></line></g><g><rect x="870" y="393" fill="#f4f4f4" stroke="#666" width="10" height="33" rx="0" ry="0"></rect></g><g><text x="475" y="419" class="messageText" style="text-anchor: middle;">Return some other IFragment instance</text><line x1="870" y1="426" x2="80" y2="426" class="messageLine0" stroke-width="2" stroke="black" marker-end="url(#arrowhead)" style="fill: none;"></line></g><g><text x="177.5" y="454" class="messageText" style="text-anchor: middle;">Replace existing IFragment with newly created</text><line x1="80" y1="461" x2="275" y2="461" class="messageLine0" stroke-width="2" stroke="black" marker-end="url(#arrowhead)" style="fill: none;"></line></g><g><rect x="270" y="463" fill="#f4f4f4" stroke="#666" width="10" height="68" rx="0" ry="0"></rect></g><g><text x="377.5" y="489" class="messageText" style="text-anchor: middle;">Commits transaction</text><line x1="280" y1="496" x2="475" y2="496" class="messageLine0" stroke-width="2" stroke="black" marker-end="url(#arrowhead)" style="fill: none;"></line></g><g><text x="477.5" y="524" class="messageText" style="text-anchor: middle;">Pushes the tag</text><line x1="280" y1="531" x2="675" y2="531" class="messageLine0" stroke-width="2" stroke="black" marker-end="url(#arrowhead)" style="fill: none;"></line></g><g><rect x="50" y="541" fill="#EDF2AE" stroke="#666" width="850" height="36" rx="0" ry="0" class="note"></rect><text x="66" y="569" fill="black" class="noteText"><tspan x="66">User interaction</tspan></text></g><g><text x="475" y="605" class="messageText" style="text-anchor: middle;">User pressed the back button</text><line x1="875" y1="612" x2="75" y2="612" class="messageLine0" stroke-width="2" stroke="black" marker-end="url(#arrowhead)" style="fill: none;"></line></g><g><rect x="70" y="614" fill="#f4f4f4" stroke="#666" width="10" height="33" rx="0" ry="0"></rect></g><g><text x="177.5" y="640" class="messageText" style="text-anchor: middle;">Checking for the state of fragment stack</text><line x1="80" y1="647" x2="275" y2="647" class="messageLine0" stroke-width="2" stroke="black" marker-end="url(#arrowhead)" style="fill: none;"></line></g><g><rect x="270" y="674" fill="#f4f4f4" stroke="#666" width="10" height="359" rx="0" ry="0"></rect></g><g><text x="377.5" y="700" class="messageText" style="text-anchor: middle;">Pop Immediate</text><line x1="280" y1="707" x2="475" y2="707" class="messageLine0" stroke-width="2" stroke="black" marker-end="url(#arrowhead)" style="fill: none;"></line></g><g><text x="477.5" y="735" class="messageText" style="text-anchor: middle;">Pop up the tag</text><line x1="280" y1="742" x2="675" y2="742" class="messageLine0" stroke-width="2" stroke="black" marker-end="url(#arrowhead)" style="fill: none;"></line></g><g><text x="477.5" y="770" class="messageText" style="text-anchor: middle;">Get tag of current fragment</text><line x1="280" y1="777" x2="675" y2="777" class="messageLine0" stroke-width="2" stroke="black" marker-end="url(#arrowhead)" style="fill: none;"></line></g><g><rect x="670" y="779" fill="#f4f4f4" stroke="#666" width="10" height="33" rx="0" ry="0"></rect></g><g><text x="475" y="805" class="messageText" style="text-anchor: middle;">Returns tag of current fragment</text><line x1="670" y1="812" x2="280" y2="812" class="messageLine0" stroke-width="2" stroke="black" marker-end="url(#arrowhead)" style="fill: none;"></line></g><g><text x="377.5" y="840" class="messageText" style="text-anchor: middle;">Find fragment by tag</text><line x1="280" y1="847" x2="475" y2="847" class="messageLine0" stroke-width="2" stroke="black" marker-end="url(#arrowhead)" style="fill: none;"></line></g><g><rect x="470" y="849" fill="#f4f4f4" stroke="#666" width="10" height="33" rx="0" ry="0"></rect></g><g><text x="375" y="875" class="messageText" style="text-anchor: middle;">Returns the fragment</text><line x1="470" y1="882" x2="280" y2="882" class="messageLine1" stroke-width="2" stroke="black" marker-end="url(#arrowhead)" style="stroke-dasharray: 3, 3; fill: none;"></line></g><g><text x="577.5" y="910" class="messageText" style="text-anchor: middle;">Set the title</text><line x1="280" y1="917" x2="875" y2="917" class="messageLine1" stroke-width="2" stroke="black" marker-end="url(#arrowhead)" style="stroke-dasharray: 3, 3; fill: none;"></line></g><g><rect x="870" y="919" fill="#f4f4f4" stroke="#666" width="10" height="33" rx="0" ry="0"></rect></g><g><text x="472.5" y="945" class="messageText" style="text-anchor: middle;">(via FragmentChannel) Set the title</text><line x1="870" y1="952" x2="75" y2="952" class="messageLine1" stroke-width="2" stroke="black" marker-end="url(#arrowhead)" style="stroke-dasharray: 3, 3; fill: none;"></line></g><g><rect x="0" y="962" fill="#EDF2AE" stroke="#666" width="150" height="36" rx="0" ry="0" class="note"></rect><text x="16" y="990" fill="black" class="noteText"><tspan x="16">Setting the title.</tspan></text></g><g><text x="172.5" y="1026" class="messageText" style="text-anchor: middle;">TRUE</text><line x1="270" y1="1033" x2="75" y2="1033" class="messageLine0" stroke-width="2" stroke="black" marker-end="url(#arrowhead)" style="fill: none;"></line></g><g><text x="175" y="1081" class="messageText" style="text-anchor: middle;">FALSE</text><line x1="275" y1="1088" x2="75" y2="1088" class="messageLine0" stroke-width="2" stroke="black" marker-end="url(#arrowhead)" style="fill: none;"></line></g><g><rect x="0" y="1098" fill="#EDF2AE" stroke="#666" width="150" height="36" rx="0" ry="0" class="note"></rect><text x="16" y="1126" fill="black" class="noteText"><tspan x="16">Finish</tspan></text></g><g><text x="175" y="1162" class="messageText" style="text-anchor: middle;">Disposing on destroy</text><line x1="75" y1="1169" x2="275" y2="1169" class="messageLine0" stroke-width="2" stroke="black" marker-end="url(#arrowhead)" style="fill: none;"></line></g><g><rect x="70" y="1171" fill="#f4f4f4" stroke="#666" width="10" height="331" rx="0" ry="0"></rect></g><g><text x="475" y="1197" class="messageText" style="text-anchor: middle;">Get tag of current fragment</text><line x1="275" y1="1204" x2="675" y2="1204" class="messageLine0" stroke-width="2" stroke="black" marker-end="url(#arrowhead)" style="fill: none;"></line></g><g><rect x="670" y="1206" fill="#f4f4f4" stroke="#666" width="10" height="33" rx="0" ry="0"></rect></g><g><text x="472.5" y="1232" class="messageText" style="text-anchor: middle;">Returns tag of current fragment</text><line x1="670" y1="1239" x2="275" y2="1239" class="messageLine0" stroke-width="2" stroke="black" marker-end="url(#arrowhead)" style="fill: none;"></line></g><g><text x="375" y="1267" class="messageText" style="text-anchor: middle;">Find fragment by tag</text><line x1="275" y1="1274" x2="475" y2="1274" class="messageLine0" stroke-width="2" stroke="black" marker-end="url(#arrowhead)" style="fill: none;"></line></g><g><rect x="470" y="1276" fill="#f4f4f4" stroke="#666" width="10" height="33" rx="0" ry="0"></rect></g><g><text x="372.5" y="1302" class="messageText" style="text-anchor: middle;">Returns the fragment</text><line x1="470" y1="1309" x2="275" y2="1309" class="messageLine1" stroke-width="2" stroke="black" marker-end="url(#arrowhead)" style="stroke-dasharray: 3, 3; fill: none;"></line></g><g><text x="575" y="1337" class="messageText" style="text-anchor: middle;">Dispose</text><line x1="275" y1="1344" x2="875" y2="1344" class="messageLine1" stroke-width="2" stroke="black" marker-end="url(#arrowhead)" style="stroke-dasharray: 3, 3; fill: none;"></line></g><g><rect x="870" y="1346" fill="#f4f4f4" stroke="#666" width="10" height="121" rx="0" ry="0"></rect></g><g><rect x="800" y="1354" fill="#EDF2AE" stroke="#666" width="150" height="78" rx="0" ry="0" class="note"></rect><text x="816" y="1382" fill="black" class="noteText"><tspan x="816">Disposing all RX</tspan><tspan dy="21" x="816">streams for</tspan><tspan dy="21" x="816">example</tspan></text></g><g><text x="572.5" y="1460" class="messageText" style="text-anchor: middle;">Dispose completed</text><line x1="870" y1="1467" x2="275" y2="1467" class="messageLine1" stroke-width="2" stroke="black" marker-end="url(#arrowhead)" style="stroke-dasharray: 3, 3; fill: none;"></line></g><g><text x="177.5" y="1495" class="messageText" style="text-anchor: middle;">Everything disposed</text><line x1="275" y1="1502" x2="80" y2="1502" class="messageLine0" stroke-width="2" stroke="black" marker-end="url(#arrowhead)" style="fill: none;"></line></g><g><rect x="0" y="1512" fill="#EDF2AE" stroke="#666" width="150" height="36" rx="0" ry="0" class="note"></rect><text x="16" y="1540" fill="black" class="noteText"><tspan x="16">Finished</tspan></text></g><g><line x1="-10" y1="657" x2="960" y2="657" stroke-width="2" stroke="#526e52" class="loopLine"></line><line x1="960" y1="657" x2="960" y2="1558" stroke-width="2" stroke="#526e52" class="loopLine"></line><line x1="-10" y1="1558" x2="960" y2="1558" stroke-width="2" stroke="#526e52" class="loopLine"></line><line x1="-10" y1="657" x2="-10" y2="1558" stroke-width="2" stroke="#526e52" class="loopLine"></line><line x1="-10" y1="1043" x2="960" y2="1043" stroke-width="2" stroke="#526e52" class="loopLine"></line><rect x="-10" y="657" fill="#526e52" stroke="none" width="50" height="20" rx="0" ry="0" class="labelBox"></rect><text x="-2.5" y="672" fill="white" class="labelText"><tspan x="-2.5">alt</tspan></text><text x="475" y="672" fill="black" class="loopText" style="text-anchor: middle;"><tspan x="475">[ is not last fragment ]</tspan></text><text x="475" y="1058" fill="black" class="loopText" style="text-anchor: middle;"><tspan x="475">[ is last fragment ]</tspan></text></g><g><rect x="0" y="1578" fill="#eaeaea" stroke="#666" width="150" height="65" rx="3" ry="3" class="actor"></rect><text x="75" y="1615.5" class="actor" style="text-anchor: middle;">Activity</text></g><g><rect x="200" y="1578" fill="#eaeaea" stroke="#666" width="150" height="65" rx="3" ry="3" class="actor"></rect><text x="275" y="1615.5" class="actor" style="text-anchor: middle;">EasyFragmentManager</text></g><g><rect x="400" y="1578" fill="#eaeaea" stroke="#666" width="150" height="65" rx="3" ry="3" class="actor"></rect><text x="475" y="1615.5" class="actor" style="text-anchor: middle;">FragmentManager</text></g><g><rect x="600" y="1578" fill="#eaeaea" stroke="#666" width="150" height="65" rx="3" ry="3" class="actor"></rect><text x="675" y="1615.5" class="actor" style="text-anchor: middle;">FragmentTagStack</text></g><g><rect x="800" y="1578" fill="#eaeaea" stroke="#666" width="150" height="65" rx="3" ry="3" class="actor"></rect><text x="875" y="1615.5" class="actor" style="text-anchor: middle;">Fragment</text></g></svg>